HIERARCHY
ROOT mixamorig:Hips
{
	OFFSET 0.00 0.00 0.00
	CHANNELS 6 Xposition Yposition Zposition Zrotation Yrotation Xrotation
	JOINT mixamorig:Spine
	{
		OFFSET	-0.0379	9.4905	-1.3921
		CHANNELS 3 Zrotation Yrotation Xrotation
		JOINT mixamorig:Spine1
		{
			OFFSET	-0.0442	11.0722	-1.6241
			CHANNELS 3 Zrotation Yrotation Xrotation
			JOINT mixamorig:Spine2
			{
				OFFSET	-0.0506	12.6540	-1.8561
				CHANNELS 3 Zrotation Yrotation Xrotation
				JOINT mixamorig:Neck
				{
					OFFSET	-0.0569	14.2358	-2.0881
					CHANNELS 3 Zrotation Yrotation Xrotation
					JOINT mixamorig:Head
					{
						OFFSET	0.0000	3.2802	0.3133
						CHANNELS 3 Zrotation Yrotation Xrotation
						End Site
						{
							OFFSET 0.0000 25.6535 2.4505
						}
					}
				}
				JOINT mixamorig:LeftShoulder
				{
					OFFSET	6.7288	11.7566	-2.0585
					CHANNELS 3 Zrotation Yrotation Xrotation
					JOINT mixamorig:LeftArm
					{
						OFFSET	13.5713	-4.9583	0.0593
						CHANNELS 3 Zrotation Yrotation Xrotation
						JOINT mixamorig:LeftForeArm
						{
							OFFSET	17.2582	-15.4446	-0.1304
							CHANNELS 3 Zrotation Yrotation Xrotation
							JOINT mixamorig:LeftHand
							{
								OFFSET	19.1747	-11.8144	8.4973
								CHANNELS 3 Zrotation Yrotation Xrotation
								JOINT mixamorig:LeftHandThumb1
								{
									OFFSET	1.4152	-3.1459	3.3921
									CHANNELS 3 Zrotation Yrotation Xrotation
									JOINT mixamorig:LeftHandThumb2
									{
										OFFSET	1.1321	-2.5167	2.7137
										CHANNELS 3 Zrotation Yrotation Xrotation
										JOINT mixamorig:LeftHandThumb3
										{
											OFFSET	0.8208	-4.0642	2.2357
											CHANNELS 3 Zrotation Yrotation Xrotation
											End Site
											{
												OFFSET 1.6034 -3.3436 0.9597
											}
										}
									}
								}
								JOINT mixamorig:LeftHandIndex1
								{
									OFFSET	9.2608	-6.0923	10.0311
									CHANNELS 3 Zrotation Yrotation Xrotation
									JOINT mixamorig:LeftHandIndex2
									{
										OFFSET	2.1918	-1.7186	1.6722
										CHANNELS 3 Zrotation Yrotation Xrotation
										JOINT mixamorig:LeftHandIndex3
										{
											OFFSET	1.7360	-1.7660	0.9701
											CHANNELS 3 Zrotation Yrotation Xrotation
											End Site
											{
												OFFSET 2.0655 -2.6048 1.4660
											}
										}
									}
								}
								JOINT mixamorig:LeftHandMiddle1
								{
									OFFSET	10.5922	-6.2980	7.4687
									CHANNELS 3 Zrotation Yrotation Xrotation
									JOINT mixamorig:LeftHandMiddle2
									{
										OFFSET	2.5325	-1.7582	1.0567
										CHANNELS 3 Zrotation Yrotation Xrotation
										JOINT mixamorig:LeftHandMiddle3
										{
											OFFSET	1.4253	-2.1413	0.5937
											CHANNELS 3 Zrotation Yrotation Xrotation
											End Site
											{
												OFFSET 1.4359 -3.3336 0.5679
											}
										}
									}
								}
								JOINT mixamorig:LeftHandRing1
								{
									OFFSET	11.3894	-6.2561	4.0229
									CHANNELS 3 Zrotation Yrotation Xrotation
									JOINT mixamorig:LeftHandRing2
									{
										OFFSET	2.1076	-1.6023	0.6135
										CHANNELS 3 Zrotation Yrotation Xrotation
										JOINT mixamorig:LeftHandRing3
										{
											OFFSET	0.7822	-1.9700	0.2509
											CHANNELS 3 Zrotation Yrotation Xrotation
											End Site
											{
												OFFSET 0.4716 -2.6865 0.5721
											}
										}
									}
								}
								JOINT mixamorig:LeftHandPinky1
								{
									OFFSET	10.9033	-6.8431	1.2170
									CHANNELS 3 Zrotation Yrotation Xrotation
									JOINT mixamorig:LeftHandPinky2
									{
										OFFSET	1.0521	-1.1494	-0.0577
										CHANNELS 3 Zrotation Yrotation Xrotation
										JOINT mixamorig:LeftHandPinky3
										{
											OFFSET	0.2801	-1.5065	0.1598
											CHANNELS 3 Zrotation Yrotation Xrotation
											End Site
											{
												OFFSET 0.6358 -1.4513 0.5238
											}
										}
									}
								}
							}
						}
					}
				}
				JOINT mixamorig:RightShoulder
				{
					OFFSET	-6.8238	11.7566	-2.1177
					CHANNELS 3 Zrotation Yrotation Xrotation
					JOINT mixamorig:RightArm
					{
						OFFSET	-13.5338	-4.9583	-0.0593
						CHANNELS 3 Zrotation Yrotation Xrotation
						JOINT mixamorig:RightForeArm
						{
							OFFSET	-17.2582	-15.4446	-0.1126
							CHANNELS 3 Zrotation Yrotation Xrotation
							JOINT mixamorig:RightHand
							{
								OFFSET	-19.1747	-11.8143	8.6982
								CHANNELS 3 Zrotation Yrotation Xrotation
								JOINT mixamorig:RightHandThumb1
								{
									OFFSET	-1.4504	-3.2286	3.3657
									CHANNELS 3 Zrotation Yrotation Xrotation
									JOINT mixamorig:RightHandThumb2
									{
										OFFSET	-1.1603	-2.5829	2.6926
										CHANNELS 3 Zrotation Yrotation Xrotation
										JOINT mixamorig:RightHandThumb3
										{
											OFFSET	-0.8066	-4.0900	2.2727
											CHANNELS 3 Zrotation Yrotation Xrotation
											End Site
											{
												OFFSET -1.3619 -3.3561 1.1081
											}
										}
									}
								}
								JOINT mixamorig:RightHandIndex1
								{
									OFFSET	-9.3119	-5.9977	10.0611
									CHANNELS 3 Zrotation Yrotation Xrotation
									JOINT mixamorig:RightHandIndex2
									{
										OFFSET	-2.1048	-1.8288	1.6029
										CHANNELS 3 Zrotation Yrotation Xrotation
										JOINT mixamorig:RightHandIndex3
										{
											OFFSET	-1.7590	-1.7055	0.9784
											CHANNELS 3 Zrotation Yrotation Xrotation
											End Site
											{
												OFFSET -2.1656 -2.6293 1.3206
											}
										}
									}
								}
								JOINT mixamorig:RightHandMiddle1
								{
									OFFSET	-10.8050	-6.3490	7.3536
									CHANNELS 3 Zrotation Yrotation Xrotation
									JOINT mixamorig:RightHandMiddle2
									{
										OFFSET	-2.3752	-1.6487	1.1901
										CHANNELS 3 Zrotation Yrotation Xrotation
										JOINT mixamorig:RightHandMiddle3
										{
											OFFSET	-1.3712	-2.2392	0.4981
											CHANNELS 3 Zrotation Yrotation Xrotation
											End Site
											{
												OFFSET -1.5574 -2.6423 0.6323
											}
										}
									}
								}
								JOINT mixamorig:RightHandRing1
								{
									OFFSET	-10.9108	-6.1334	3.9079
									CHANNELS 3 Zrotation Yrotation Xrotation
									JOINT mixamorig:RightHandRing2
									{
										OFFSET	-2.1215	-1.2548	0.4888
										CHANNELS 3 Zrotation Yrotation Xrotation
										JOINT mixamorig:RightHandRing3
										{
											OFFSET	-1.1529	-1.8295	0.3881
											CHANNELS 3 Zrotation Yrotation Xrotation
											End Site
											{
												OFFSET -1.1314 -2.8340 0.3221
											}
										}
									}
								}
								JOINT mixamorig:RightHandPinky1
								{
									OFFSET	-11.0147	-6.9107	1.0680
									CHANNELS 3 Zrotation Yrotation Xrotation
									JOINT mixamorig:RightHandPinky2
									{
										OFFSET	-0.9868	-1.3546	0.1104
										CHANNELS 3 Zrotation Yrotation Xrotation
										JOINT mixamorig:RightHandPinky3
										{
											OFFSET	-0.2187	-1.3359	0.1675
											CHANNELS 3 Zrotation Yrotation Xrotation
											End Site
											{
												OFFSET -0.5717 -1.4745 0.5311
											}
										}
									}
								}
							}
						}
					}
				}
			}
		}
	}
	JOINT mixamorig:LeftUpLeg
	{
		OFFSET	9.6182	-5.2725	-1.0109
		CHANNELS 3 Zrotation Yrotation Xrotation
		JOINT mixamorig:LeftLeg
		{
			OFFSET	1.3853	-43.3265	-1.1856
			CHANNELS 3 Zrotation Yrotation Xrotation
			JOINT mixamorig:LeftFoot
			{
				OFFSET	1.1958	-44.1070	-5.7230
				CHANNELS 3 Zrotation Yrotation Xrotation
				JOINT mixamorig:LeftToeBase
				{
					OFFSET	2.5995	-11.8143	15.8139
					CHANNELS 3 Zrotation Yrotation Xrotation
					End Site
					{
						OFFSET 1.2230 0.0445 7.9736
					}
				}
			}
		}
	}
	JOINT mixamorig:RightUpLeg
	{
		OFFSET	-9.9411	-5.2725	-1.2117
		CHANNELS 3 Zrotation Yrotation Xrotation
		JOINT mixamorig:RightLeg
		{
			OFFSET	-1.3852	-43.3265	-0.5841
			CHANNELS 3 Zrotation Yrotation Xrotation
			JOINT mixamorig:RightFoot
			{
				OFFSET	-1.1958	-44.1069	-6.3865
				CHANNELS 3 Zrotation Yrotation Xrotation
				JOINT mixamorig:RightToeBase
				{
					OFFSET	-2.5995	-11.8146	15.9998
					CHANNELS 3 Zrotation Yrotation Xrotation
					End Site
					{
						OFFSET -1.2231 0.0444 7.9271
					}
				}
			}
		}
	}
}
MOTION
Frames: 9
Frame Time: 0.0333333
1.2855 97.9497 2.2668 0.5959 -32.4901 -1.8453 1.4360 16.0344 5.4558 0.9035 0.8485 4.3671 0.9143 0.8686 4.3611 -2.6022 1.4178 0.8931 -8.8658 5.0472 0.1460 -1.9406 -12.9715 4.4044 -16.2125 -16.6887 -38.7391 72.5740 -54.0853 -117.2022 15.6609 5.7254 24.8464 -1.7802 2.6842 8.2372 8.6525 13.3550 -1.6471 22.6441 28.3292 25.2067 -63.1354 13.1621 37.8636 -73.8607 11.8160 35.4243 -41.4496 7.6849 23.5276 -71.8820 6.0327 31.1737 -65.8847 11.5215 21.5155 -39.3434 3.8568 13.5700 -70.8769 0.5441 26.7229 -58.4648 10.9210 16.0440 -39.0424 6.8240 20.6201 -67.3508 -9.8011 16.6497 -58.5018 16.3662 17.1903 -61.0618 8.1812 24.6601 -2.7109 18.9726 0.5116 8.3593 35.1753 -30.0418 -63.1056 56.4087 -105.6607 -20.9138 -20.6996 -3.8699 10.7231 -13.4509 6.2946 -14.0959 -7.5176 -5.3985 -38.4197 5.2085 30.8968 66.9982 -13.6034 38.2687 75.2050 -11.0358 35.1626 43.5553 -5.2686 21.2450 76.1846 -10.4726 34.5011 61.5505 -4.9103 20.0115 49.6326 -7.2394 17.2537 82.9191 -2.5943 28.5680 61.4101 -11.0880 14.5315 43.6198 -2.5144 10.7090 63.9615 6.4490 17.7348 58.3094 -16.4908 20.0526 62.3872 -8.9226 27.3645 5.6654 16.1526 -25.0386 -2.8382 -8.9618 40.8711 -6.6775 -2.9474 -13.3566 0.0000 -0.0000 -0.0852 -5.5524 -8.8958 -23.1529 -2.9596 -5.3419 42.6013 5.0637 0.8296 -16.4252 -0.0000 -0.0000 -0.0001 
0.4268 97.2007 1.6534 0.1785 -29.3894 -2.8437 2.2749 15.8332 5.8308 1.2780 0.6798 4.6419 1.2886 0.7114 4.6347 -2.8154 1.3471 0.9659 -8.5324 4.3652 0.6801 -2.7648 -12.6601 4.4870 -17.4094 -17.6440 -36.5302 71.9972 -54.2716 -116.4910 16.5046 4.5690 23.6569 -1.7802 2.6842 8.2372 8.6525 13.3550 -1.6471 22.6441 28.3292 25.2067 -63.1355 13.1621 37.8637 -73.8607 11.8160 35.4243 -41.4496 7.6849 23.5276 -71.8820 6.0327 31.1737 -65.8847 11.5214 21.5155 -39.3434 3.8568 13.5700 -70.8769 0.5441 26.7229 -58.4648 10.9210 16.0440 -39.0424 6.8240 20.6201 -67.3508 -9.8011 16.6497 -58.5018 16.3662 17.1903 -61.0618 8.1812 24.6601 -3.6272 18.5483 0.2068 8.7140 34.8471 -29.2007 -63.2679 56.3798 -105.8555 -21.4525 -19.9483 -3.8912 10.7231 -13.4509 6.2946 -14.0960 -7.5176 -5.3985 -38.4197 5.2085 30.8968 66.9983 -13.6034 38.2687 75.2050 -11.0358 35.1626 43.5554 -5.2686 21.2450 76.1846 -10.4726 34.5011 61.5505 -4.9103 20.0115 49.6326 -7.2394 17.2537 82.9191 -2.5943 28.5680 61.4101 -11.0880 14.5315 43.6198 -2.5144 10.7090 63.9615 6.4490 17.7348 58.3094 -16.4908 20.0526 62.3872 -8.9226 27.3645 6.4002 15.7231 -26.5769 -3.1995 -8.6256 46.0354 -5.7639 -6.1040 -12.6063 -0.0000 0.0000 -6.1063 -6.5704 -10.8038 -20.8013 -2.2361 -6.5260 44.4990 4.9943 0.9313 -18.9204 -0.0000 0.0000 -0.0001 
-0.3950 96.8818 1.0625 0.0925 -27.1545 -3.5440 3.0545 15.7941 6.0421 1.5798 0.6827 4.8089 1.5916 0.7216 4.7997 -3.1020 1.3152 1.2343 -8.1351 3.8101 1.4579 -3.6140 -11.7565 4.4120 -18.9800 -18.9379 -33.1565 71.3609 -54.4699 -115.7083 17.4978 3.2997 22.4024 -1.7802 2.6843 8.2372 8.6525 13.3550 -1.6471 22.6441 28.3292 25.2067 -63.1355 13.1621 37.8636 -73.8607 11.8160 35.4243 -41.4496 7.6849 23.5276 -71.8820 6.0327 31.1737 -65.8847 11.5215 21.5154 -39.3434 3.8568 13.5700 -70.8769 0.5441 26.7229 -58.4648 10.9210 16.0440 -39.0424 6.8240 20.6201 -67.3508 -9.8011 16.6497 -58.5018 16.3662 17.1903 -61.0618 8.1813 24.6601 -3.7868 18.4348 0.1517 9.0841 34.3743 -27.7214 -63.5425 56.3300 -106.1853 -22.0819 -19.3516 -3.7563 10.7231 -13.4509 6.2946 -14.0959 -7.5176 -5.3985 -38.4197 5.2085 30.8968 66.9982 -13.6034 38.2687 75.2050 -11.0358 35.1626 43.5553 -5.2686 21.2450 76.1846 -10.4726 34.5011 61.5505 -4.9103 20.0115 49.6326 -7.2394 17.2537 82.9191 -2.5943 28.5680 61.4100 -11.0880 14.5315 43.6198 -2.5144 10.7090 63.9615 6.4490 17.7348 58.3094 -16.4908 20.0526 62.3872 -8.9226 27.3645 6.8525 15.3351 -29.3767 -3.8606 -7.8337 51.5964 -4.5688 -8.6430 -7.9723 0.0123 0.0019 -9.9227 -7.5429 -12.1748 -18.4660 -2.1638 -7.7692 45.0706 5.3122 1.0700 -20.5101 -0.0000 -0.0000 -0.0000 
-1.1865 96.8606 0.4644 0.4151 -26.4196 -4.1590 3.5788 16.0108 6.0672 1.7051 0.9424 4.8503 1.7201 0.9836 4.8375 -3.3699 1.2992 1.6214 -7.6388 3.3157 2.3684 -4.2962 -10.3597 4.1647 -20.5802 -20.2239 -29.0014 70.4782 -54.7329 -114.6256 18.2348 2.1994 21.5200 -1.7802 2.6842 8.2372 8.6525 13.3550 -1.6471 22.6441 28.3292 25.2066 -63.1354 13.1621 37.8637 -73.8607 11.8160 35.4243 -41.4496 7.6849 23.5276 -71.8820 6.0327 31.1737 -65.8847 11.5215 21.5155 -39.3434 3.8568 13.5700 -70.8769 0.5441 26.7229 -58.4648 10.9210 16.0441 -39.0424 6.8240 20.6201 -67.3508 -9.8011 16.6497 -58.5018 16.3662 17.1903 -61.0618 8.1812 24.6601 -3.2489 18.7018 0.3198 9.6132 33.7893 -25.8218 -63.8910 56.2654 -106.6041 -22.5487 -19.1176 -3.4888 10.7231 -13.4509 6.2946 -14.0959 -7.5176 -5.3985 -38.4197 5.2085 30.8968 66.9983 -13.6034 38.2687 75.2050 -11.0358 35.1626 43.5553 -5.2686 21.2450 76.1846 -10.4726 34.5011 61.5505 -4.9103 20.0115 49.6326 -7.2394 17.2537 82.9191 -2.5943 28.5680 61.4101 -11.0880 14.5315 43.6198 -2.5144 10.7090 63.9615 6.4490 17.7348 58.3094 -16.4908 20.0526 62.3872 -8.9226 27.3645 7.1907 15.2937 -31.7504 -4.7459 -6.9851 55.8408 -4.1244 -10.1949 -1.4816 0.5222 0.0857 -17.6117 -7.9706 -12.5106 -16.6498 -2.6986 -7.8686 44.9241 5.9439 1.2107 -21.5012 0.0000 -0.0000 -0.0000 
-1.9082 96.7171 -0.0410 0.7798 -26.1536 -4.8351 3.8682 16.3956 5.9804 1.7023 1.3661 4.8192 1.7210 1.4081 4.8013 -3.5548 1.2645 1.9743 -7.1204 2.7691 3.2337 -4.6377 -8.9023 3.8314 -21.8185 -21.1684 -25.0038 69.4248 -55.0288 -113.3380 18.0651 1.5157 21.3704 -1.7802 2.6842 8.2372 8.6524 13.3550 -1.6471 22.6441 28.3292 25.2067 -63.1355 13.1621 37.8637 -73.8607 11.8160 35.4243 -41.4496 7.6849 23.5276 -71.8820 6.0327 31.1737 -65.8847 11.5215 21.5155 -39.3434 3.8568 13.5700 -70.8769 0.5441 26.7230 -58.4648 10.9210 16.0440 -39.0424 6.8240 20.6201 -67.3508 -9.8011 16.6497 -58.5018 16.3662 17.1903 -61.0618 8.1812 24.6601 -2.5286 19.1441 0.5462 10.3517 33.2347 -24.0045 -64.2101 56.2047 -106.9879 -22.6010 -19.1940 -3.1742 10.7231 -13.4509 6.2946 -14.0960 -7.5176 -5.3985 -38.4197 5.2085 30.8968 66.9982 -13.6034 38.2688 75.2050 -11.0358 35.1626 43.5554 -5.2686 21.2450 76.1846 -10.4726 34.5011 61.5505 -4.9103 20.0115 49.6326 -7.2394 17.2537 82.9191 -2.5943 28.5680 61.4101 -11.0880 14.5315 43.6198 -2.5144 10.7090 63.9615 6.4490 17.7348 58.3094 -16.4907 20.0526 62.3873 -8.9226 27.3645 8.0634 14.9697 -34.3392 -5.6359 -6.5006 60.1741 -8.3326 -11.2002 6.0494 4.3554 0.6516 -22.4252 -9.1237 -13.5620 -14.7996 -1.5871 -7.4993 44.8773 5.7613 1.2595 -22.6163 -0.0000 -0.0000 -0.0001 
-2.4508 96.7331 -0.4142 1.2465 -25.5394 -5.3385 4.0128 16.7925 5.8421 1.6884 1.7939 4.7546 1.7098 1.8381 4.7308 -3.6713 1.2011 2.2129 -6.6542 2.1305 3.9393 -4.6148 -7.7347 3.5098 -22.5781 -21.7319 -21.8483 68.4003 -55.2987 -112.0901 16.7693 1.2787 21.9631 -1.7802 2.6843 8.2372 8.6525 13.3550 -1.6471 22.6441 28.3292 25.2066 -63.1355 13.1621 37.8637 -73.8607 11.8160 35.4243 -41.4496 7.6849 23.5276 -71.8820 6.0327 31.1737 -65.8847 11.5215 21.5155 -39.3434 3.8568 13.5700 -70.8769 0.5441 26.7229 -58.4648 10.9210 16.0440 -39.0424 6.8240 20.6201 -67.3508 -9.8011 16.6497 -58.5018 16.3662 17.1903 -61.0618 8.1813 24.6601 -2.0442 19.5233 0.7018 11.1823 32.8020 -22.6101 -64.4499 56.1582 -107.2765 -22.1707 -19.3381 -2.9222 10.7231 -13.4509 6.2946 -14.0959 -7.5176 -5.3985 -38.4197 5.2085 30.8968 66.9982 -13.6034 38.2687 75.2050 -11.0358 35.1626 43.5553 -5.2686 21.2450 76.1846 -10.4726 34.5011 61.5505 -4.9103 20.0115 49.6326 -7.2394 17.2537 82.9191 -2.5944 28.5680 61.4100 -11.0880 14.5315 43.6198 -2.5144 10.7090 63.9615 6.4490 17.7349 58.3094 -16.4907 20.0526 62.3872 -8.9226 27.3645 8.1635 14.1926 -36.1420 -5.8938 -6.1791 63.0653 -8.7219 -12.2333 8.4534 5.1698 0.4251 -17.7599 -10.2987 -14.3203 -12.8233 -1.1670 -7.4346 44.2856 6.1322 1.3605 -23.3786 -0.0000 0.0000 -0.0000 
-2.7966 97.0370 -0.7830 1.8512 -24.8798 -5.5021 4.0018 17.0802 5.6468 1.7468 2.0817 4.6374 1.7683 2.1299 4.6084 -3.7766 1.1380 2.3493 -6.3272 1.5332 4.4296 -4.2699 -7.0766 3.2796 -22.8923 -21.9697 -20.0827 67.7638 -55.4579 -111.3167 14.7828 1.4496 23.0786 -1.7802 2.6842 8.2372 8.6525 13.3550 -1.6471 22.6441 28.3292 25.2066 -63.1355 13.1621 37.8637 -73.8607 11.8161 35.4243 -41.4496 7.6849 23.5276 -71.8820 6.0327 31.1737 -65.8847 11.5214 21.5155 -39.3434 3.8568 13.5700 -70.8769 0.5441 26.7229 -58.4648 10.9210 16.0441 -39.0424 6.8240 20.6201 -67.3508 -9.8011 16.6497 -58.5018 16.3662 17.1903 -61.0618 8.1813 24.6601 -1.7495 19.7888 0.8097 11.5448 32.5191 -21.9900 -64.6445 56.1198 -107.5108 -21.5327 -19.4227 -2.7494 10.7231 -13.4509 6.2947 -14.0959 -7.5176 -5.3985 -38.4197 5.2085 30.8968 66.9982 -13.6034 38.2687 75.2050 -11.0358 35.1626 43.5553 -5.2686 21.2450 76.1846 -10.4726 34.5011 61.5505 -4.9103 20.0115 49.6326 -7.2394 17.2537 82.9191 -2.5943 28.5680 61.4101 -11.0880 14.5315 43.6198 -2.5144 10.7090 63.9615 6.4490 17.7349 58.3094 -16.4907 20.0526 62.3872 -8.9226 27.3645 7.7337 13.8528 -36.9644 -5.8497 -6.2322 62.5620 -8.2511 -11.0416 6.4016 3.7483 0.0641 -7.8855 -10.9654 -14.2336 -11.1027 -2.0425 -7.6561 42.9135 7.2668 1.5521 -23.5177 0.0000 0.0000 0.0000 
-3.0639 97.4139 -1.2042 2.4894 -24.1463 -5.5085 3.8697 17.2153 5.4589 1.8446 2.1829 4.5089 1.8647 2.2342 4.4772 -3.9231 1.1136 2.4676 -6.1277 1.1361 4.7319 -3.8763 -7.0031 3.2050 -22.7980 -21.8509 -20.0298 68.1337 -55.3662 -111.7661 13.5797 1.9890 24.2620 -1.7802 2.6842 8.2372 8.6525 13.3550 -1.6471 22.6441 28.3292 25.2066 -63.1354 13.1621 37.8637 -73.8607 11.8160 35.4243 -41.4496 7.6849 23.5276 -71.8820 6.0327 31.1737 -65.8847 11.5215 21.5155 -39.3434 3.8568 13.5700 -70.8769 0.5441 26.7229 -58.4648 10.9210 16.0440 -39.0424 6.8240 20.6201 -67.3508 -9.8011 16.6497 -58.5018 16.3662 17.1903 -61.0618 8.1812 24.6601 -1.5006 20.0153 0.9075 11.2469 32.4336 -22.2927 -64.7932 56.0901 -107.6900 -21.1290 -19.6683 -2.5120 10.7231 -13.4509 6.2946 -14.0960 -7.5176 -5.3985 -38.4197 5.2085 30.8968 66.9982 -13.6034 38.2687 75.2050 -11.0358 35.1626 43.5554 -5.2686 21.2450 76.1846 -10.4726 34.5011 61.5505 -4.9103 20.0115 49.6326 -7.2394 17.2537 82.9191 -2.5943 28.5680 61.4101 -11.0880 14.5315 43.6198 -2.5144 10.7090 63.9615 6.4490 17.7348 58.3094 -16.4908 20.0526 62.3872 -8.9226 27.3645 6.9885 14.0593 -36.9540 -5.3843 -6.8407 58.0947 -7.1525 -9.2343 3.6728 -0.0000 0.0000 -0.6717 -11.8124 -14.3238 -9.3835 -2.5603 -8.0439 41.1920 8.2026 1.7073 -23.4079 0.0000 -0.0000 -0.0001 
-3.2110 97.7046 -1.5142 3.1065 -23.1237 -5.5097 3.6531 17.2427 5.2546 1.9828 2.1696 4.3773 2.0004 2.2242 4.3445 -4.1597 1.1419 2.5707 -5.9619 0.9171 4.9140 -3.6071 -7.4887 3.2975 -22.3896 -21.3424 -21.4649 69.6969 -54.9542 -113.6701 13.6323 2.9411 25.2269 -1.7802 2.6842 8.2372 8.6525 13.3550 -1.6471 22.6441 28.3292 25.2066 -63.1355 13.1621 37.8637 -73.8607 11.8160 35.4243 -41.4496 7.6849 23.5276 -71.8820 6.0327 31.1737 -65.8847 11.5215 21.5155 -39.3434 3.8568 13.5700 -70.8769 0.5441 26.7229 -58.4648 10.9210 16.0440 -39.0424 6.8240 20.6201 -67.3508 -9.8011 16.6497 -58.5018 16.3662 17.1903 -61.0618 8.1812 24.6601 -1.4515 20.1804 0.9314 10.6321 32.5912 -23.3221 -64.7999 56.0888 -107.6979 -20.8949 -20.3221 -2.1491 10.7231 -13.4509 6.2946 -14.0960 -7.5176 -5.3985 -38.4197 5.2085 30.8968 66.9982 -13.6034 38.2687 75.2050 -11.0358 35.1626 43.5554 -5.2686 21.2450 76.1846 -10.4726 34.5011 61.5505 -4.9103 20.0114 49.6326 -7.2394 17.2537 82.9191 -2.5943 28.5680 61.4100 -11.0880 14.5315 43.6198 -2.5144 10.7090 63.9615 6.4490 17.7348 58.3094 -16.4908 20.0526 62.3872 -8.9226 27.3645 6.0216 14.4241 -35.7564 -4.1958 -8.0668 49.6269 -6.6188 -9.2486 1.7033 0.0000 -0.0000 -0.4196 -13.0029 -14.7440 -7.4431 -2.7541 -8.5987 39.4537 9.1106 1.8532 -23.2989 0.0000 -0.0000 -0.0000 
